Dutch spoken and English subs.

With: Carice van Houten, Waldemar Torenstra and René van 't Hof

Maak kennis met Lea Meijer, een vrouw die jong, mooi, rijk en gelukkig getrouwd is met Harry. Op een kwade dag besluit Harry dat hij een kind wil. Lea stemt toe, nadat ze zijn overeengekomen dat hij haar elke avond zal nemen. En met een fulltime au-pair hoeft haar leven toch niet echt te veranderen? De bevalling wordt een langdurige hel compleet met tangverlossing en totaalruptuur. Maar Junior blijkt gezond en Harry is dolgelukkig. Maar Lea niet.

Lea is an immaculate 30-something wife whose husband's job in real estate allows her an enviably glossy lifestyle... 

------------------ Dutch Friends ------------------
You can find my Friends at: http://www.Film-Test.nl 
------ They got my dutchs subs ---- and more ------

General:

Complete name                    : De Gelukkige Huisvrouw\De Gelukkige Huisvrouw.avi
Format                           : AVI
Format/Info                      : Audio Video Interleave
File size                        : 1.09 GiB
Duration                         : 1h 37mn
Overall bit rate                 : 1 601 Kbps

Video:

Format                           : MPEG-4 Visual
Format profile                   : Simple@L3
Format settings, BVOP            : No
Format settings, QPel            : No
Format settings, GMC             : No warppoints
Format settings, Matrix          : Default (H.263)
Codec ID                         : XVID
Codec ID/Hint                    : XviD
Duration                         : 1h 37mn
Bit rate                         : 1 428 Kbps
Width                            : 704 pixels
Height                           : 396 pixels
Display aspect ratio             : 16:9
Frame rate                       : 25.000 fps
Color space                      : YUV
Chroma subsampling               : 4:2:0
Bit depth                        : 8 bits
Scan type                        : Progressive
Bits/(Pixel*Frame)               : 0.205
Stream size                      : 1 000 MiB (89%)
Writing library                  : XviD 1.1.2 (UTC 2006-11-01)

Audio:

Format                           : MPEG Audio
Format version                   : Version 1
Format profile                   : Layer 3
Mode                             : Joint stereo
Mode extension                   : MS Stereo
Codec ID                         : 55
Codec ID/Hint                    : MP3
Duration                         : 1h 37mn
Bit rate mode                    : Constant
Bit rate                         : 160 Kbps
Channel(s)                       : 2 channels
Sampling rate                    : 48.0 KHz
Stream size                      : 112 MiB (10%)
Alignment                        : Split accross interleaves
Interleave, duration             : 24 ms (0.60 video frame)
Interleave, preload duration     : 460 ms

